# xmcd CD database file
# Copyright (C) 1996 Ti Kan
# 
# Track frame offsets:
#     150
#     10232
#     32565
#     46637
#     58577
#     74367
#     90962
#     113022
#     130600
#     149600
#     164675
#     186642
#     202117
# 
# Disc length: 2969 seconds
# 
# Revision: 1
# Processed by: cddbd v1.4PL0 Copyright (c) Steve Scherf et al.
# Submitted via: DiscPlay 4.0.3
# 
DISCID=b50b970d
DTITLE=Blacanblus - Cuatro mujeres y un maldito piano
DYEAR=1900
DGENRE=
TTITLE0=No quiero tu dinero
TTITLE1=Blues latino
TTITLE2=maldito piano
TTITLE3=como lo hacia fred astaire
TTITLE4=Rouge y pentagrama
TTITLE5=El agitador
TTITLE6=John Henry
TTITLE7=Up above my head
TTITLE8=St. louis blues
TTITLE9=Ma babe
TTITLE10=After you've gone
TTITLE11=Sweet home chicago
TTITLE12=sixteen tons
EXTD=
EXTT0=
EXTT1=
EXTT2=
EXTT3=
EXTT4=
EXTT5=
EXTT6=
EXTT7=
EXTT8=
EXTT9=
EXTT10=
EXTT11=
EXTT12=
PLAYORDER=
